HIERARCHY
ROOT Hips
{
	OFFSET 0.000000 0.000000 0.000000
	CHANNELS 6 Xposition Yposition Zposition Zrotation Yrotation Xrotation 
	JOINT LHipJoint
	{
		OFFSET 0.000000 0.000000 0.000000
		CHANNELS 3 Zrotation Yrotation Xrotation
		JOINT LeftUpLeg
		{
			OFFSET 1.363060 -1.794630 0.839290
			CHANNELS 3 Zrotation Yrotation Xrotation
			JOINT LeftLeg
			{
				OFFSET 2.448110 -6.726130 0.000000
				CHANNELS 3 Zrotation Yrotation Xrotation
				JOINT LeftFoot
				{
					OFFSET 2.562200 -7.039590 0.000000
					CHANNELS 3 Zrotation Yrotation Xrotation
					JOINT LeftToeBase
					{
						OFFSET 0.157640 -0.433110 2.322550
						CHANNELS 3 Zrotation Yrotation Xrotation
						End Site
						{
							OFFSET 0.000000 0.000000 0.000000
						}
					}
				}
			}
		}
	}
	JOINT RHipJoint
	{
		OFFSET 0.000000 0.000000 0.000000
		CHANNELS 3 Zrotation Yrotation Xrotation
		JOINT RightUpLeg
		{
			OFFSET -1.305520 -1.794630 0.839290
			CHANNELS 3 Zrotation Yrotation Xrotation
			JOINT RightLeg
			{
				OFFSET -2.542530 -6.985550 0.000000
				CHANNELS 3 Zrotation Yrotation Xrotation
				JOINT RightFoot
				{
					OFFSET -2.568260 -7.056230 0.000000
					CHANNELS 3 Zrotation Yrotation Xrotation
					JOINT RightToeBase
					{
						OFFSET -0.164730 -0.452590 2.363150
						CHANNELS 3 Zrotation Yrotation Xrotation
						End Site
						{
							OFFSET 0.000000 0.000000 0.000000
						}
					}
				}
			}
		}
	}
}
MOTION
Frames: 19
Frame Time: 0.008333
3.366725 16.612034 -2.002668 111.120258 -65.915577 -117.374576 -2.693299 -4.957124 -1.874599 -9.235861 -8.322221 -133.997686 1.989309 7.817046 85.595433 2.796656 12.030241 -13.718695 -0.784500 -0.000000 -36.905100 13.837604 4.374600 -5.546032 -13.303698 2.950335 -5.868148 -0.510925 -3.791943 42.264873 -2.057290 -7.903188 -18.387544 1.312400 -0.000000 -60.407901
3.383421 16.595278 -1.998778 111.304357 -66.091839 -117.466044 -2.767143 -4.942577 -1.499911 -8.113561 -7.805941 -131.737325 1.140741 7.281850 79.642660 3.057034 12.960087 -13.567034 -0.735900 -0.000000 -36.572200 13.875750 4.428353 -5.680761 -13.067821 3.179047 -5.945650 -0.500699 -3.862095 42.616287 -2.125819 -8.262981 -18.564308 1.387400 0.000000 -59.606300
3.403549 16.581416 -1.995761 111.443587 -66.345061 -117.465473 -2.855535 -4.903270 -1.042341 -6.841922 -7.300370 -129.130945 0.222222 6.625900 72.601836 3.288613 13.569893 -13.579437 -0.691700 0.000000 -36.465200 13.896506 4.485692 -5.844605 -12.736190 3.414937 -6.007450 -0.487459 -3.931658 42.903322 -2.208093 -8.695928 -18.703728 1.468400 0.000000 -58.734600
3.426581 16.571515 -1.994201 111.565078 -66.655202 -117.401424 -2.949564 -4.840669 -0.487715 -5.421534 -6.796203 -126.087692 -0.746757 5.800364 64.318835 3.465506 13.780617 -13.629541 -0.626400 0.000000 -36.717300 13.902780 4.549178 -6.037447 -12.327984 3.659702 -6.043619 -0.471874 -3.998944 43.104426 -2.299621 -9.177775 -18.791068 1.548500 0.000000 -57.824700
3.451842 16.566243 -1.995106 111.690854 -66.965559 -117.326954 -3.023324 -4.772072 0.163421 -3.858659 -6.247444 -122.432948 -1.726244 4.725790 54.608027 3.559073 13.605716 -13.469735 -0.487700 -0.000000 -37.349899 13.908762 4.627092 -6.262491 -11.914230 3.894317 -6.013463 -0.455407 -4.063604 43.189429 -2.387834 -9.642381 -18.808721 1.613500 0.000000 -56.947100
3.478203 16.566289 -1.999205 111.914780 -67.176854 -117.404132 -3.030388 -4.751197 0.870037 -2.122433 -5.523257 -117.878817 -2.612807 3.301610 43.311163 3.542757 13.224240 -12.707263 -0.202300 0.000001 -38.346700 13.929690 4.724979 -6.514540 -11.583073 4.139517 -5.833514 -0.442152 -4.126144 43.122974 -2.459872 -10.021220 -18.738010 1.647701 -0.000000 -56.199099
3.503945 16.571754 -2.006459 112.411814 -67.150458 -117.949663 -2.912919 -4.880829 1.496591 -0.104409 -4.408960 -112.036223 -3.179290 1.504118 30.547101 3.412631 13.038973 -10.891175 0.301500 -0.000001 -39.440300 13.975987 4.835727 -6.770417 -11.416177 4.454079 -5.351338 -0.437278 -4.187707 42.863097 -2.502764 -10.243608 -18.562806 1.636501 0.000000 -55.673499
3.526279 16.582375 -2.014283 113.486983 -66.775607 -119.476656 -2.668544 -5.262646 1.795791 2.346780 -2.730492 -104.692255 -3.142450 -0.374995 17.232379 3.205590 13.500903 -7.792308 1.080100 0.000000 -40.036000 14.040718 4.921644 -6.976592 -11.386298 4.969256 -4.358360 -0.439914 -4.250519 42.362803 -2.512437 -10.281339 -18.275200 1.575500 0.000000 -55.408900
3.540908 16.597575 -2.017161 115.495400 -66.076967 -122.484602 -2.420757 -5.835426 1.560196 4.740462 -0.649644 -96.564754 -2.623974 -1.715228 5.434487 2.887107 14.125130 -3.881826 2.034500 0.000000 -39.728000 14.093139 4.919385 -7.073058 -11.250479 5.861337 -2.699631 -0.431817 -4.316167 41.579961 -2.502006 -10.190368 -17.883178 1.478000 0.000000 -55.331300
3.544089 16.617606 -2.011739 118.287320 -65.204114 -126.702830 -2.277197 -6.350798 0.826958 4.797347 1.468883 -89.834257 -2.417431 -2.242768 -2.604392 2.160503 12.318854 -0.215504 2.480400 0.000000 -39.695100 14.108781 4.797120 -7.024041 -10.817656 7.068917 -0.536411 -0.393546 -4.369402 40.527247 -2.480336 -10.017993 -17.395066 1.356401 0.000000 -55.391400
3.537247 16.642839 -2.003720 120.836475 -64.265709 -130.767335 -2.167023 -6.680586 -0.107468 1.804028 3.537861 -85.574545 -2.799265 -2.331031 -7.113139 1.079235 7.345815 2.915999 1.936500 0.000001 -41.490300 14.140710 4.617176 -6.846378 -10.466141 8.076106 1.597802 -0.344620 -4.383345 39.320283 -2.409687 -9.608495 -16.798172 1.195801 0.000000 -55.809800
3.521480 16.673173 -1.995641 122.710532 -63.430788 -133.902906 -2.101402 -6.771238 -0.801323 -1.605160 5.305519 -84.623982 -3.382611 -2.071727 -6.236617 0.100849 1.798428 3.657908 0.885700 0.000001 -44.405601 14.214396 4.444357 -6.636214 -10.421115 8.585393 3.304269 -0.296259 -4.357250 38.068462 -2.269243 -8.879655 -16.115180 1.001800 0.000000 -56.671800
3.496830 16.707753 -1.985406 124.180699 -62.779067 -136.322961 -2.126362 -6.771485 -1.225959 -4.050817 6.747195 -84.269003 -3.813061 -1.758932 -4.146222 -0.280137 -2.536095 3.896795 -0.184100 -0.000000 -47.355400 14.254521 4.264508 -6.401817 -10.501709 8.670363 4.519005 -0.253955 -4.284597 36.837030 -2.083784 -7.954394 -15.394046 0.806800 -0.000000 -57.786100
3.464866 16.745307 -1.974274 125.481422 -62.317231 -138.244976 -2.286474 -6.776149 -1.349571 -4.511552 7.752444 -82.917278 -3.882085 -1.534185 -2.979571 -0.298344 -4.285534 4.601405 -0.741100 -0.000001 -49.843001 14.237068 4.086541 -6.166257 -10.561962 8.481993 5.298388 -0.218117 -4.176827 35.663794 -1.885291 -6.979816 -14.675179 0.633201 -0.000000 -58.960200
3.427876 16.784065 -1.963279 126.719400 -62.035953 -139.830155 -2.583799 -6.783280 -1.231359 -3.249002 8.242893 -80.527578 -3.653832 -1.383442 -2.686734 -0.240642 -3.601429 5.820710 -0.640100 -0.000001 -51.707500 14.163915 3.908574 -5.934216 -10.504960 8.168544 5.763279 -0.186126 -4.048634 34.561361 -1.702777 -6.090739 -13.988082 0.491900 -0.000001 -60.044800
3.387576 16.822441 -1.953622 127.856753 -61.897354 -141.144319 -2.972107 -6.766025 -1.013091 -1.325744 8.297534 -77.254457 -3.285682 -1.296844 -3.411848 -0.166969 -1.524665 7.816979 -0.066300 0.000000 -52.782700 14.053834 3.717608 -5.681858 -10.337521 7.830471 6.027703 -0.160850 -3.910129 33.540404 -1.553353 -5.369949 -13.354682 0.384000 0.000000 -60.959600
3.346158 16.858434 -1.946793 128.798150 -61.848530 -142.196548 -3.406288 -6.710779 -0.777231 0.790536 7.960801 -73.338386 -2.860103 -1.238504 -4.827197 0.045998 1.457683 10.494079 0.876800 -0.000001 -52.807399 13.942050 3.521193 -5.417306 -10.128065 7.539250 6.232420 -0.144505 -3.777337 32.596070 -1.445039 -4.855992 -12.789386 0.304600 0.000001 -61.671600
3.305208 16.890262 -1.943296 129.494291 -61.843488 -143.045723 -3.841494 -6.614131 -0.626661 2.387766 7.459928 -69.052737 -2.492840 -1.189826 -6.789313 0.476016 4.454854 13.841373 1.909800 -0.000001 -51.660000 13.847532 3.319934 -5.141795 -9.909234 7.361847 6.513016 -0.138026 -3.660130 31.717388 -1.383341 -4.577616 -12.303821 0.248400 0.000000 -62.147100
3.265431 16.916631 -1.941956 130.034921 -61.871581 -143.801690 -4.228893 -6.444877 -0.537482 3.098804 7.024059 -67.323013 -2.292773 -0.917261 -4.089511 0.767051 6.561800 14.729676 2.701500 0.000000 -49.280500 13.767525 3.127638 -4.888392 -9.618333 7.385358 6.973628 -0.132536 -3.565722 30.884745 -1.376470 -4.576404 -11.910520 0.211100 0.000000 -62.334900
